<?xml version="1.0" standalone="no"?><!DOCTYPE svg PUBLIC "-//W3C//DTD SVG 1.1//EN" "http://www.w3.org/Graphics/SVG/1.1/DTD/svg11.dtd"><svg t="1569827492965" class="icon" viewBox="0 0 1024 1024" version="1.1" xmlns="http://www.w3.org/2000/svg" p-id="9323" width="16" height="16" xmlns:xlink="http://www.w3.org/1999/xlink"><defs><style type="text/css"></style></defs><path d="M551.384615 899.938462V945.230769h78.769231a39.384615 39.384615 0 0 1 0 78.769231H393.846154a39.384615 39.384615 0 0 1 0-78.769231h78.769231v-45.292307c-199.010462-19.731692-354.461538-187.667692-354.461539-391.876924V472.615385a39.384615 39.384615 0 0 1 78.769231 0v35.446153a315.076923 315.076923 0 1 0 630.153846 0V472.615385a39.384615 39.384615 0 0 1 78.769231 0v35.446153c0 204.209231-155.451077 372.145231-354.461539 391.876924zM512 0a236.307692 236.307692 0 0 1 236.307692 236.307692v275.692308a236.307692 236.307692 0 1 1-472.615384 0V236.307692a236.307692 236.307692 0 0 1 236.307692-236.307692z" fill="#1E1E1E" p-id="9324"></path></svg>